<?xml version="1.0" encoding="UTF-8" standalone="no"?>
<!DOCTYPE svg PUBLIC "-//W3C//DTD SVG 1.1//EN" "http://www.w3.org/Graphics/SVG/1.1/DTD/svg11.dtd">
<svg version="1.1" xmlns="http://www.w3.org/2000/svg" xmlns:xlink="http://www.w3.org/1999/xlink" preserveAspectRatio="xMidYMid meet" viewBox="0 0 100 100" width="100" height="100"><defs><path d="M95 50C95 74.84 74.84 95 50 95C25.16 95 5 74.84 5 50C5 25.16 25.16 5 50 5C74.84 5 95 25.16 95 50Z" id="acadLSY1e"></path><path d="M61 57.5C63.75 58.5 66.75 59 70 59C71.5 59 72.5 60 72.5 61.5C72.5 62.35 72.5 69.15 72.5 70C72.5 71.5 71.5 72.5 70 72.5C46.5 72.5 27.5 53.5 27.5 30C27.5 28.5 28.5 27.5 30 27.5C30.88 27.5 37.88 27.5 38.75 27.5C40.25 27.5 41.25 28.5 41.25 30C41.25 33 41.75 36 42.76 39C43 39.75 42.76 40.75 42.25 41.5C41.87 41.87 39.95 43.7 36.5 47C42.84 55.5 48.34 61 53 63.5C53.56 62.95 57.95 58.55 58.51 58C59.25 57.25 60.25 57 61 57.5Z" id="b3MnCmrNqu"></path></defs><g><g><g><use xlink:href="#acadLSY1e" opacity="1" fill="#ff5500" fill-opacity="1"></use><g><use xlink:href="#acadLSY1e" opacity="1" fill-opacity="0" stroke="#ffff00" stroke-width="10" stroke-opacity="1"></use></g></g><g><use xlink:href="#b3MnCmrNqu" opacity="1" fill="#ffffff" fill-opacity="1"></use></g></g></g></svg>