<?xml version="1.0" encoding="UTF-8" standalone="no"?>
<!DOCTYPE svg PUBLIC "-//W3C//DTD SVG 1.1//EN" "http://www.w3.org/Graphics/SVG/1.1/DTD/svg11.dtd">
<svg version="1.1" xmlns="http://www.w3.org/2000/svg" xmlns:xlink="http://www.w3.org/1999/xlink" preserveAspectRatio="xMidYMid meet" viewBox="0 0 512 512" width="20" height="20"><defs><path d="M512 256C512 397.29 397.29 512 256 512C114.71 512 0 397.29 0 256C0 114.71 114.71 0 256 0C397.29 0 512 114.71 512 256Z" id="exv35y7p0"></path><path d="M256 256C256 369.69 369.69 462 256 462C142.3 462 50 369.69 50 256C50 142.3 142.3 50 256 50C369.69 50 256 142.3 256 256Z" id="d266troa3h"></path><path d="M256 50L321 50L321 462L256 462L256 50Z" id="a2NjUCOwE8"></path></defs><g><g><g><use xlink:href="#exv35y7p0" opacity="1" fill="#000000" fill-opacity="1"></use></g><g><use xlink:href="#d266troa3h" opacity="1" fill="#d3d3d3" fill-opacity="1"></use></g><g><use xlink:href="#a2NjUCOwE8" opacity="1" fill="#000000" fill-opacity="1"></use></g></g></g></svg>