<?xml version="1.0" encoding="UTF-8" standalone="no"?>
<!DOCTYPE svg PUBLIC "-//W3C//DTD SVG 1.1//EN" "http://www.w3.org/Graphics/SVG/1.1/DTD/svg11.dtd">
<svg version="1.1" xmlns="http://www.w3.org/2000/svg" xmlns:xlink="http://www.w3.org/1999/xlink" preserveAspectRatio="xMidYMid meet" viewBox="0 0 512 512" width="512" height="512"><defs><path d="M512 256C512 397.29 397.29 512 256 512C114.71 512 0 397.29 0 256C0 114.71 114.71 0 256 0C397.29 0 512 114.71 512 256Z" id="b65Tx44INg"></path><path d="M456 256C456 366.39 366.38 456 256 456C145.62 456 56 366.39 56 256C56 145.62 145.62 56 256 56C366.38 56 456 145.62 456 256Z" id="ackL20uNV"></path><path d="M406 256C406 338.79 338.79 406 256 406C173.21 406 106 338.79 106 256C106 173.22 173.21 106 256 106C338.79 106 406 173.22 406 256Z" id="g4HdXK15zl"></path><path d="M256 256L456 256C456 312.91 456 348.48 456 362.71C456 414.24 414.23 456 362.71 456C348.48 456 312.91 456 256 456L256 256Z" id="a2G98369O5"></path><path d="M306 455L256 480L256 430L256 380L306 404.99L356 430L306 455Z" id="j1yzZby9X6"></path></defs><g><g><g><use xlink:href="#b65Tx44INg" opacity="1" fill="#da70d6" fill-opacity="1"></use></g><g><use xlink:href="#ackL20uNV" opacity="1" fill="#ffffff" fill-opacity="1"></use></g><g><use xlink:href="#g4HdXK15zl" opacity="1" fill="#da70d6" fill-opacity="1"></use></g><g><use xlink:href="#a2G98369O5" opacity="1" fill="#da70d6" fill-opacity="1"></use></g><g><use xlink:href="#j1yzZby9X6" opacity="1" fill="#ffffff" fill-opacity="1"></use></g></g></g></svg>